<mxfile host="65bd71144e">
    <diagram id="H2Nnh-4vUknJfn7Z_l2M" name="Page-1">
        <mxGraphModel dx="825" dy="1169" grid="1" gridSize="10" guides="1" tooltips="1" connect="1" arrows="1" fold="1" page="1" pageScale="1" pageWidth="850" pageHeight="1100" math="0" shadow="0">
            <root>
                <mxCell id="0"/>
                <mxCell id="1" parent="0"/>
                <mxCell id="7" style="edgeStyle=none;html=1;exitX=0.25;exitY=0;exitDx=0;exitDy=0;entryX=0.712;entryY=1;entryDx=0;entryDy=0;entryPerimeter=0;fontSize=14;" parent="1" source="3" target="6" edge="1">
                    <mxGeometry relative="1" as="geometry"/>
                </mxCell>
                <mxCell id="9" value="Foliar respiration" style="edgeLabel;html=1;align=center;verticalAlign=middle;resizable=0;points=[];fontSize=14;" parent="7" vertex="1" connectable="0">
                    <mxGeometry x="0.0552" relative="1" as="geometry">
                        <mxPoint x="5" y="18" as="offset"/>
                    </mxGeometry>
                </mxCell>
                <mxCell id="17" style="edgeStyle=none;html=1;exitX=0.25;exitY=1;exitDx=0;exitDy=0;fontSize=14;" parent="1" source="3" target="4" edge="1">
                    <mxGeometry relative="1" as="geometry"/>
                </mxCell>
                <mxCell id="45" value="Transfer to &lt;br&gt;mobile C" style="edgeLabel;html=1;align=center;verticalAlign=middle;resizable=0;points=[];fontSize=14;" parent="17" vertex="1" connectable="0">
                    <mxGeometry x="0.1458" y="1" relative="1" as="geometry">
                        <mxPoint as="offset"/>
                    </mxGeometry>
                </mxCell>
                <mxCell id="26" style="edgeStyle=none;html=1;exitX=0.75;exitY=1;exitDx=0;exitDy=0;entryX=0.959;entryY=0.006;entryDx=0;entryDy=0;entryPerimeter=0;dashed=1;fontSize=14;" parent="1" source="3" target="14" edge="1">
                    <mxGeometry relative="1" as="geometry"/>
                </mxCell>
                <mxCell id="62" value="Transpiration" style="edgeStyle=none;html=1;exitX=0.75;exitY=0;exitDx=0;exitDy=0;entryX=0.035;entryY=1.1;entryDx=0;entryDy=0;entryPerimeter=0;" edge="1" parent="1" source="3" target="56">
                    <mxGeometry relative="1" as="geometry"/>
                </mxCell>
                <mxCell id="3" value="Foliar Canopy" style="whiteSpace=wrap;html=1;fillColor=#6d8764;fontColor=#ffffff;strokeColor=#3A5431;fontSize=14;" parent="1" vertex="1">
                    <mxGeometry x="580" y="210" width="160" height="40" as="geometry"/>
                </mxCell>
                <mxCell id="18" style="edgeStyle=none;html=1;exitX=0.5;exitY=0;exitDx=0;exitDy=0;entryX=0.5;entryY=1;entryDx=0;entryDy=0;fontSize=14;" parent="1" source="4" target="6" edge="1">
                    <mxGeometry relative="1" as="geometry"/>
                </mxCell>
                <mxCell id="40" value="Growth &amp;amp; Maintenace respiration" style="edgeLabel;html=1;align=center;verticalAlign=middle;resizable=0;points=[];fontSize=14;" parent="18" vertex="1" connectable="0">
                    <mxGeometry x="-0.115" relative="1" as="geometry">
                        <mxPoint as="offset"/>
                    </mxGeometry>
                </mxCell>
                <mxCell id="19" style="edgeStyle=none;html=1;exitX=0;exitY=0.5;exitDx=0;exitDy=0;entryX=1;entryY=0.5;entryDx=0;entryDy=0;fontSize=14;" parent="1" source="4" target="11" edge="1">
                    <mxGeometry relative="1" as="geometry"/>
                </mxCell>
                <mxCell id="47" value="Allocation to&lt;br style=&quot;font-size: 14px;&quot;&gt;wood carbon" style="edgeLabel;html=1;align=center;verticalAlign=middle;resizable=0;points=[];fontSize=14;" parent="19" vertex="1" connectable="0">
                    <mxGeometry x="0.1877" y="-1" relative="1" as="geometry">
                        <mxPoint x="9" y="1" as="offset"/>
                    </mxGeometry>
                </mxCell>
                <mxCell id="21" style="edgeStyle=none;html=1;exitX=0.5;exitY=1;exitDx=0;exitDy=0;entryX=0.5;entryY=0;entryDx=0;entryDy=0;fontSize=14;" parent="1" source="4" target="13" edge="1">
                    <mxGeometry relative="1" as="geometry"/>
                </mxCell>
                <mxCell id="42" value="Allocation to fine roots" style="edgeLabel;html=1;align=center;verticalAlign=middle;resizable=0;points=[];fontSize=14;" parent="21" vertex="1" connectable="0">
                    <mxGeometry x="-0.0703" relative="1" as="geometry">
                        <mxPoint y="11" as="offset"/>
                    </mxGeometry>
                </mxCell>
                <mxCell id="24" style="edgeStyle=none;html=1;exitX=1;exitY=0.5;exitDx=0;exitDy=0;entryX=0;entryY=0.5;entryDx=0;entryDy=0;fontSize=14;" parent="1" source="4" target="5" edge="1">
                    <mxGeometry relative="1" as="geometry">
                        <mxPoint x="550" y="345.28000000000003" as="targetPoint"/>
                    </mxGeometry>
                </mxCell>
                <mxCell id="43" value="Allocation to buds" style="edgeLabel;html=1;align=center;verticalAlign=middle;resizable=0;points=[];fontSize=14;" parent="24" vertex="1" connectable="0">
                    <mxGeometry x="-0.1203" y="-1" relative="1" as="geometry">
                        <mxPoint as="offset"/>
                    </mxGeometry>
                </mxCell>
                <mxCell id="4" value="Plant&lt;br style=&quot;font-size: 14px;&quot;&gt;C" style="whiteSpace=wrap;html=1;fillColor=#6d8764;fontColor=#ffffff;strokeColor=#3A5431;fontSize=14;" parent="1" vertex="1">
                    <mxGeometry x="335" y="255.28" width="120" height="40" as="geometry"/>
                </mxCell>
                <mxCell id="25" style="edgeStyle=none;html=1;exitX=0.5;exitY=0;exitDx=0;exitDy=0;entryX=0.5;entryY=1;entryDx=0;entryDy=0;fontSize=14;" parent="1" source="5" target="3" edge="1">
                    <mxGeometry relative="1" as="geometry"/>
                </mxCell>
                <mxCell id="44" value="Foliar production" style="edgeLabel;html=1;align=center;verticalAlign=middle;resizable=0;points=[];fontSize=14;" parent="25" vertex="1" connectable="0">
                    <mxGeometry x="-0.0743" y="1" relative="1" as="geometry">
                        <mxPoint as="offset"/>
                    </mxGeometry>
                </mxCell>
                <mxCell id="5" value="Bud&lt;br style=&quot;font-size: 14px;&quot;&gt;C" style="whiteSpace=wrap;html=1;fillColor=#6d8764;fontColor=#ffffff;strokeColor=#3A5431;fontSize=14;" parent="1" vertex="1">
                    <mxGeometry x="570" y="360" width="120" height="40" as="geometry"/>
                </mxCell>
                <mxCell id="8" value="Gross photosynthesis" style="edgeStyle=none;html=1;exitX=0.854;exitY=0.983;exitDx=0;exitDy=0;exitPerimeter=0;fontSize=14;" parent="1" source="6" target="3" edge="1">
                    <mxGeometry x="-0.4478" relative="1" as="geometry">
                        <Array as="points"/>
                        <mxPoint as="offset"/>
                    </mxGeometry>
                </mxCell>
                <mxCell id="29" style="edgeStyle=none;html=1;entryX=0.5;entryY=0;entryDx=0;entryDy=0;fontSize=14;exitX=0;exitY=0.5;exitDx=0;exitDy=0;" parent="1" source="50" target="28" edge="1">
                    <mxGeometry relative="1" as="geometry">
                        <mxPoint x="1170" y="75.28000000000002" as="sourcePoint"/>
                        <Array as="points">
                            <mxPoint x="1030" y="250"/>
                        </Array>
                    </mxGeometry>
                </mxCell>
                <mxCell id="35" value="Snow-Rain partition" style="edgeLabel;html=1;align=center;verticalAlign=middle;resizable=0;points=[];fontSize=14;" parent="29" vertex="1" connectable="0">
                    <mxGeometry x="-0.1546" y="-1" relative="1" as="geometry">
                        <mxPoint x="-58" y="29" as="offset"/>
                    </mxGeometry>
                </mxCell>
                <mxCell id="48" style="edgeStyle=none;html=1;exitX=0.5;exitY=1;exitDx=0;exitDy=0;dashed=1;startArrow=none;fontSize=14;" parent="1" source="50" target="27" edge="1">
                    <mxGeometry relative="1" as="geometry"/>
                </mxCell>
                <mxCell id="58" value="Precipitation" style="edgeLabel;html=1;align=center;verticalAlign=middle;resizable=0;points=[];fontSize=14;" parent="48" vertex="1" connectable="0">
                    <mxGeometry x="-0.0416" relative="1" as="geometry">
                        <mxPoint as="offset"/>
                    </mxGeometry>
                </mxCell>
                <mxCell id="6" value="Atomsphere" style="whiteSpace=wrap;html=1;fillColor=#1ba1e2;fontColor=#ffffff;strokeColor=#006EAF;fontSize=14;" parent="1" vertex="1">
                    <mxGeometry x="20" y="100" width="750" height="30" as="geometry"/>
                </mxCell>
                <mxCell id="20" value="Wood production" style="edgeStyle=none;html=1;exitX=0.5;exitY=1;exitDx=0;exitDy=0;entryX=0.5;entryY=0;entryDx=0;entryDy=0;fontSize=14;" parent="1" source="11" target="12" edge="1">
                    <mxGeometry x="0.1554" relative="1" as="geometry">
                        <Array as="points">
                            <mxPoint x="160" y="340"/>
                        </Array>
                        <mxPoint as="offset"/>
                    </mxGeometry>
                </mxCell>
                <mxCell id="11" value="Wood&lt;br style=&quot;font-size: 14px;&quot;&gt;C" style="whiteSpace=wrap;html=1;fillColor=#6d8764;fontColor=#ffffff;strokeColor=#3A5431;fontSize=14;" parent="1" vertex="1">
                    <mxGeometry x="100" y="255.28" width="120" height="40" as="geometry"/>
                </mxCell>
                <mxCell id="23" style="edgeStyle=none;html=1;exitX=0.5;exitY=1;exitDx=0;exitDy=0;entryX=0.221;entryY=0.006;entryDx=0;entryDy=0;entryPerimeter=0;dashed=1;fontSize=14;" parent="1" source="12" target="14" edge="1">
                    <mxGeometry relative="1" as="geometry"/>
                </mxCell>
                <mxCell id="12" value="Wood" style="whiteSpace=wrap;html=1;dashed=1;dashPattern=8 8;fontSize=14;" parent="1" vertex="1">
                    <mxGeometry x="100" y="390.00000000000006" width="120" height="40" as="geometry"/>
                </mxCell>
                <mxCell id="22" style="edgeStyle=none;html=1;exitX=0.5;exitY=1;exitDx=0;exitDy=0;dashed=1;fontSize=14;" parent="1" source="13" target="14" edge="1">
                    <mxGeometry relative="1" as="geometry"/>
                </mxCell>
                <mxCell id="13" value="Fine Root" style="whiteSpace=wrap;html=1;dashed=1;dashPattern=8 8;fontSize=14;" parent="1" vertex="1">
                    <mxGeometry x="335" y="390.00000000000006" width="120" height="40" as="geometry"/>
                </mxCell>
                <mxCell id="14" value="Soil" style="whiteSpace=wrap;html=1;fillColor=#a0522d;fontColor=#ffffff;strokeColor=#6D1F00;fontSize=14;" parent="1" vertex="1">
                    <mxGeometry x="10" y="475.28" width="750" height="40" as="geometry"/>
                </mxCell>
                <mxCell id="15" value="" style="edgeStyle=none;orthogonalLoop=1;jettySize=auto;html=1;exitX=0.07;exitY=-0.033;exitDx=0;exitDy=0;exitPerimeter=0;entryX=0.063;entryY=0.967;entryDx=0;entryDy=0;entryPerimeter=0;fontSize=14;" parent="1" source="14" target="6" edge="1">
                    <mxGeometry width="80" relative="1" as="geometry">
                        <mxPoint x="80" y="380" as="sourcePoint"/>
                        <mxPoint x="160" y="380" as="targetPoint"/>
                        <Array as="points"/>
                    </mxGeometry>
                </mxCell>
                <mxCell id="16" value="Soil respiration" style="edgeLabel;html=1;align=center;verticalAlign=middle;resizable=0;points=[];fontSize=14;" parent="15" vertex="1" connectable="0">
                    <mxGeometry x="-0.1186" y="-1" relative="1" as="geometry">
                        <mxPoint y="-133" as="offset"/>
                    </mxGeometry>
                </mxCell>
                <mxCell id="27" value="Ground / Underground" style="whiteSpace=wrap;html=1;dashed=1;dashPattern=8 8;fillColor=#647687;fontColor=#ffffff;strokeColor=#314354;fontSize=14;" parent="1" vertex="1">
                    <mxGeometry x="1025" y="475.28" width="300" height="40" as="geometry"/>
                </mxCell>
                <mxCell id="30" style="edgeStyle=none;html=1;exitX=0.5;exitY=1;exitDx=0;exitDy=0;entryX=0.5;entryY=0;entryDx=0;entryDy=0;fontSize=14;" parent="1" source="28" target="31" edge="1">
                    <mxGeometry relative="1" as="geometry">
                        <mxPoint x="930" y="285.28000000000003" as="targetPoint"/>
                    </mxGeometry>
                </mxCell>
                <mxCell id="36" value="Snow melt" style="edgeLabel;html=1;align=center;verticalAlign=middle;resizable=0;points=[];fontSize=14;" parent="30" vertex="1" connectable="0">
                    <mxGeometry x="-0.0532" relative="1" as="geometry">
                        <mxPoint as="offset"/>
                    </mxGeometry>
                </mxCell>
                <mxCell id="33" style="edgeStyle=none;html=1;exitX=0.5;exitY=1;exitDx=0;exitDy=0;entryX=0.229;entryY=0.001;entryDx=0;entryDy=0;entryPerimeter=0;fontSize=14;" parent="1" source="28" target="27" edge="1">
                    <mxGeometry relative="1" as="geometry"/>
                </mxCell>
                <mxCell id="37" value="Fast flow" style="edgeLabel;html=1;align=center;verticalAlign=middle;resizable=0;points=[];fontSize=14;" parent="33" vertex="1" connectable="0">
                    <mxGeometry x="-0.0348" relative="1" as="geometry">
                        <mxPoint as="offset"/>
                    </mxGeometry>
                </mxCell>
                <mxCell id="28" value="Snow" style="whiteSpace=wrap;html=1;fillColor=#f5f5f5;strokeColor=#666666;fontColor=#333333;fontSize=14;" parent="1" vertex="1">
                    <mxGeometry x="940" y="320" width="85" height="40" as="geometry"/>
                </mxCell>
                <mxCell id="32" style="edgeStyle=none;html=1;exitX=1;exitY=0.5;exitDx=0;exitDy=0;entryX=0;entryY=0.5;entryDx=0;entryDy=0;fontSize=14;" parent="1" source="31" target="27" edge="1">
                    <mxGeometry relative="1" as="geometry"/>
                </mxCell>
                <mxCell id="38" value="Drainage" style="edgeLabel;html=1;align=center;verticalAlign=middle;resizable=0;points=[];fontSize=14;" parent="32" vertex="1" connectable="0">
                    <mxGeometry x="-0.1338" relative="1" as="geometry">
                        <mxPoint x="5" as="offset"/>
                    </mxGeometry>
                </mxCell>
                <mxCell id="34" style="edgeStyle=none;html=1;exitX=0.25;exitY=0;exitDx=0;exitDy=0;entryX=1;entryY=0.75;entryDx=0;entryDy=0;fontSize=14;" parent="1" source="31" target="3" edge="1">
                    <mxGeometry relative="1" as="geometry"/>
                </mxCell>
                <mxCell id="39" value="Uptake" style="edgeLabel;html=1;align=center;verticalAlign=middle;resizable=0;points=[];fontSize=14;" parent="34" vertex="1" connectable="0">
                    <mxGeometry x="0.001" relative="1" as="geometry">
                        <mxPoint as="offset"/>
                    </mxGeometry>
                </mxCell>
                <mxCell id="31" value="Soil Water" style="whiteSpace=wrap;html=1;fillColor=#1ba1e2;fontColor=#ffffff;strokeColor=#006EAF;fontSize=14;" parent="1" vertex="1">
                    <mxGeometry x="780" y="475.28" width="140" height="40" as="geometry"/>
                </mxCell>
                <mxCell id="51" value="" style="edgeStyle=none;html=1;exitX=0.716;exitY=1.002;exitDx=0;exitDy=0;entryX=0.5;entryY=0;entryDx=0;entryDy=0;dashed=1;endArrow=none;fontSize=14;exitPerimeter=0;" parent="1" source="56" target="50" edge="1">
                    <mxGeometry relative="1" as="geometry">
                        <mxPoint x="1047.08" y="131.76999999999998" as="sourcePoint"/>
                        <mxPoint x="1049.9" y="531" as="targetPoint"/>
                        <Array as="points"/>
                    </mxGeometry>
                </mxCell>
                <mxCell id="53" value="Precipitation" style="edgeLabel;html=1;align=center;verticalAlign=middle;resizable=0;points=[];fontSize=14;" parent="51" vertex="1" connectable="0">
                    <mxGeometry x="0.1578" y="1" relative="1" as="geometry">
                        <mxPoint as="offset"/>
                    </mxGeometry>
                </mxCell>
                <mxCell id="54" style="edgeStyle=none;html=1;exitX=1;exitY=0.5;exitDx=0;exitDy=0;entryX=0.926;entryY=1.072;entryDx=0;entryDy=0;entryPerimeter=0;dashed=1;fontSize=14;" parent="1" source="50" target="56" edge="1">
                    <mxGeometry relative="1" as="geometry">
                        <Array as="points">
                            <mxPoint x="1290" y="230"/>
                        </Array>
                    </mxGeometry>
                </mxCell>
                <mxCell id="55" value="Interception" style="edgeLabel;html=1;align=center;verticalAlign=middle;resizable=0;points=[];fontSize=14;" parent="54" vertex="1" connectable="0">
                    <mxGeometry x="-0.2954" y="-2" relative="1" as="geometry">
                        <mxPoint x="35" y="-42" as="offset"/>
                    </mxGeometry>
                </mxCell>
                <mxCell id="50" value="" style="whiteSpace=wrap;html=1;dashed=1;dashPattern=1 4;fontSize=14;" parent="1" vertex="1">
                    <mxGeometry x="1165" y="200" width="20" height="40" as="geometry"/>
                </mxCell>
                <mxCell id="56" value="Atomsphere" style="whiteSpace=wrap;html=1;fillColor=#1ba1e2;fontColor=#ffffff;strokeColor=#006EAF;fontSize=14;" parent="1" vertex="1">
                    <mxGeometry x="790" y="100" width="540" height="30" as="geometry"/>
                </mxCell>
                <mxCell id="60" value="Carbon" style="text;html=1;align=center;verticalAlign=middle;resizable=0;points=[];autosize=1;strokeColor=none;fillColor=none;fontSize=20;" parent="1" vertex="1">
                    <mxGeometry x="10" y="65" width="90" height="40" as="geometry"/>
                </mxCell>
                <mxCell id="61" value="Water" style="text;html=1;align=center;verticalAlign=middle;resizable=0;points=[];autosize=1;strokeColor=none;fillColor=none;fontSize=20;" parent="1" vertex="1">
                    <mxGeometry x="780" y="65" width="80" height="40" as="geometry"/>
                </mxCell>
            </root>
        </mxGraphModel>
    </diagram>
</mxfile>